<svg width="168" height="32" viewBox="0 0 168 32" fill="none" xmlns="http://www.w3.org/2000/svg">
<g clip-path="url(#clip0_31_80)">
<path d="M58.0123 17.5091C60.8799 17.5091 63.1052 15.8473 63.8571 13.247H57.8256V10.1102H68.1999V20.5921H64.8226L64.5283 18.0726C62.7588 19.9497 60.3739 20.9941 57.5582 20.9941C51.9557 20.9941 47.7726 16.8128 47.7726 11.2353C47.7726 5.65789 51.9808 1.42456 57.7987 1.42456C62.5973 1.42456 66.3497 4.15945 67.5575 8.47533H63.8051C62.7858 6.25009 60.5874 4.88265 57.7736 4.88265C54.1271 4.88265 51.5268 7.50987 51.5268 11.2353C51.5268 14.9608 54.2347 17.5091 58.0141 17.5091H58.0123Z" fill="white"/>
<path d="M71.1737 1.82666H74.9261V16.9995H86.0774V20.5922H71.1719V1.82666H71.1737Z" fill="white"/>
<path d="M98.7575 1.42456C104.627 1.42456 109.024 5.36538 109.024 11.2353C109.024 17.1053 104.627 20.9941 98.7575 20.9941C92.8875 20.9941 88.464 16.8128 88.464 11.2353C88.464 5.65789 92.8606 1.42456 98.7575 1.42456ZM98.7575 17.4014C102.644 17.4014 105.272 14.8549 105.272 11.2353C105.272 7.61574 102.644 5.01545 98.7575 5.01545C94.8705 5.01545 92.2164 7.53499 92.2164 11.2353C92.2164 14.9357 94.9513 17.4014 98.7575 17.4014Z" fill="white"/>
<path d="M111.624 1.82666H121.114C125.001 1.82666 127.628 3.75759 127.628 6.73295C127.628 8.58313 126.476 10.1103 124.707 10.9681C127.04 11.7451 128.486 13.301 128.486 15.3647C128.486 18.5016 125.349 20.5922 121.114 20.5922H111.624V1.82666ZM121.114 5.04428H115.377V9.54859H121.114C122.695 9.54859 124.035 8.61004 124.035 7.32335C124.035 5.95591 122.803 5.04428 121.114 5.04428ZM121.114 12.6567H115.377V17.3477H121.114C123.285 17.3477 124.707 16.463 124.707 15.0148C124.707 13.4858 123.366 12.655 121.114 12.655V12.6567Z" fill="white"/>
<path d="M138.191 1.82666H142.372L151.835 20.5922H147.654L145.428 16.1687H135.162L132.937 20.5922H128.782L138.191 1.82666ZM143.686 12.7375L140.282 5.98283L136.877 12.7375H143.686Z" fill="white"/>
<path d="M153.095 1.82666H156.847V16.9995H167.998V20.5922H153.093V1.82666H153.095Z" fill="white"/>
<path d="M49.1472 31.4261H47.7708V24.5476H49.1472V31.4261Z" fill="white"/>
<path d="M52.4006 25.8146H49.9636V24.5476H56.1943V25.8146H53.777V31.4261H52.4006V25.8146Z" fill="white"/>
<path d="M62.9562 30.258C63.9486 30.258 64.7256 29.7968 65.1078 29.0485H66.5632C66.1415 30.5918 64.7256 31.5734 62.9562 31.5734C60.8045 31.5734 59.1823 30.0409 59.1823 27.9969C59.1823 25.9529 60.7938 24.4006 62.9562 24.4006C64.7256 24.4006 66.1307 25.384 66.5632 26.9256H65.1078C64.7346 26.1683 63.9575 25.716 62.9562 25.716C61.5511 25.716 60.5587 26.6402 60.5587 27.9969C60.5587 29.3536 61.5618 30.258 62.9562 30.258Z" fill="white"/>
<path d="M70.8074 24.4006C72.959 24.4006 74.5705 25.8452 74.5705 27.9969C74.5705 30.1486 72.959 31.5734 70.8074 31.5734C68.6557 31.5734 67.0334 30.0409 67.0334 27.9969C67.0334 25.9529 68.6449 24.4006 70.8074 24.4006ZM70.8074 30.258C72.2322 30.258 73.1959 29.3249 73.1959 27.9969C73.1959 26.6689 72.2322 25.716 70.8074 25.716C69.3825 25.716 68.4099 26.6402 68.4099 27.9969C68.4099 29.3536 69.413 30.258 70.8074 30.258Z" fill="white"/>
<path d="M76.9018 31.4261H75.5254V24.5476H77.2751L79.4967 29.7859L81.7076 24.5476H83.4573V31.4261H82.0809V27.0133L80.184 31.4261H78.7986L76.9018 26.9936V31.4261Z" fill="white"/>
<path d="M84.724 24.5476H88.2431C89.7164 24.5476 90.9547 25.5203 90.9547 26.9846C90.9547 28.37 89.6482 29.4216 88.2431 29.4216H86.1004V31.4261H84.724V24.5476ZM88.2431 25.8146H86.1004V28.1331H88.2431C89.0004 28.1331 89.58 27.6324 89.58 26.9828C89.58 26.3332 89.0094 25.8128 88.2431 25.8128V25.8146Z" fill="white"/>
<path d="M94.0988 24.5476H95.6313L99.1002 31.4261H97.5676L96.7529 29.8038H92.9897L92.1732 31.4261H90.6497L94.0988 24.5476ZM96.1141 28.5477L94.8668 26.0712L93.6178 28.5477H96.1141Z" fill="white"/>
<path d="M100.94 31.4261H99.5631V24.5476H100.663L104.938 29.1075V24.5476H106.314V31.4261H105.203L100.938 26.8374V31.4261H100.94Z" fill="white"/>
<path d="M106.768 24.5476H108.498L110.621 27.3776L112.744 24.5476H114.474L111.31 28.7738V31.4279H109.934V28.7738L106.77 24.5476H106.768Z" fill="white"/>
<path d="M13.4213 24.7915C14.3222 24.7915 14.8839 25.7659 14.4317 26.5466L12.2692 30.2792L11.5712 31.4852C9.10367 30.7691 6.88202 29.4771 5.06056 27.7651C4.11842 26.8804 3.28396 25.8808 2.5769 24.7915H13.4213Z" fill="#02CCCE"/>
<path d="M29.4323 7.17602H15.6251C11.9517 7.17602 8.5564 9.13387 6.71519 12.312L1.12159 21.9703C0.398391 20.1434 1.37276e-06 18.155 1.37276e-06 16.0716C-0.00358772 7.24421 7.03103 0.11448 15.8584 0.00680689C21.522 -0.0613859 26.5216 2.80271 29.4323 7.17602Z" fill="#02CCCE"/>
<path d="M39.7636 7.17611L38.7048 9.00475C37.7286 10.6916 35.9269 11.7289 33.9798 11.7289H29.8308L30.8896 9.89844C31.8658 8.21336 33.6676 7.17432 35.6146 7.17432H39.7636V7.17611Z" fill="#02CCCE"/>
<path d="M43.742 13.0479L40.3413 18.9197H38.8985C35.2251 18.9197 31.828 20.8775 29.9868 24.0557C29.8432 24.3051 29.6943 24.5492 29.5363 24.7897C27.024 28.6623 22.8893 31.3846 18.0943 31.9912L22.2648 24.7897L22.4874 24.4056C23.8979 21.9686 22.141 18.9179 19.3236 18.9179H10.184L10.6093 18.1821C12.4505 15.004 15.8458 13.0461 19.5192 13.0461H43.7402L43.742 13.0479Z" fill="#02CCCE"/>
</g>
<defs>
<clipPath id="clip0_31_80">
<rect width="168" height="31.986" fill="white" transform="translate(0 0.00708008)"/>
</clipPath>
</defs>
</svg>
